<?xml version="1.0" encoding="utf-8"?>
<!-- Generator: Adobe Illustrator 19.0.1, SVG Export Plug-In . SVG Version: 6.00 Build 0)  -->
<svg version="1.1" id="Layer_1" xmlns="http://www.w3.org/2000/svg" xmlns:xlink="http://www.w3.org/1999/xlink" x="0px" y="0px"
	 viewBox="-51 175.4 491.5 491.5" style="enable-background:new -51 175.4 491.5 491.5;" xml:space="preserve">
<style type="text/css">
	.st0{fill:#B5B5B5;}
</style>
<g>
	<g>
		<path class="st0" d="M-51,175.4v491.5h491.5V175.4H-51z M420,646.4H-30.5V277.8H420V646.4z M420,257.3H-30.5v-61.4H420V257.3z"/>
	</g>
</g>
<g>
	<g>
		<rect x="379.1" y="216.3" class="st0" width="20.5" height="20.5"/>
	</g>
</g>
<g>
	<g>
		<rect x="338.1" y="216.3" class="st0" width="20.5" height="20.5"/>
	</g>
</g>
<g>
	<g>
		<rect x="297.2" y="216.3" class="st0" width="20.5" height="20.5"/>
	</g>
</g>
<g>
	<g>
		<rect x="0.2" y="216.3" class="st0" width="245.8" height="20.5"/>
	</g>
</g>
<g>
	<g>
		<polygon class="st0" points="303,394.8 288.6,409.3 333.9,454.6 288.6,499.9 303,514.4 362.8,454.6 		"/>
	</g>
</g>
<g>
	<g>
		<polygon class="st0" points="101,409.3 86.5,394.8 26.7,454.6 86.5,514.4 101,499.9 55.6,454.6 		"/>
	</g>
</g>
<g>
	<g>
		
			<rect x="101.8" y="451.8" transform="matrix(-0.3786 0.9256 -0.9256 -0.3786 691.015 460.1883)" class="st0" width="178.5" height="20.5"/>
	</g>
</g>
<g>
	<g>
		<path class="st0" d="M-10,329v266.2h409.6V329H-10z M379.1,574.7H10.4V349.5h368.6L379.1,574.7L379.1,574.7z"/>
	</g>
</g>
<g>
	<g>
		<rect x="225.5" y="441.6" class="st0" width="20.5" height="20.5"/>
	</g>
</g>
<g>
	<g>
		<rect x="266.4" y="441.6" class="st0" width="20.5" height="20.5"/>
	</g>
</g>
<g>
	<g>
		<rect x="133.3" y="441.6" class="st0" width="20.5" height="20.5"/>
	</g>
</g>
<g>
	<g>
		<rect x="92.4" y="441.6" class="st0" width="20.5" height="20.5"/>
	</g>
</g>
</svg>
