<?xml version="1.0" encoding="utf-8"?>
<!-- Generator: Adobe Illustrator 19.0.1, SVG Export Plug-In . SVG Version: 6.00 Build 0)  -->
<svg version="1.1" id="Layer_1" xmlns="http://www.w3.org/2000/svg" xmlns:xlink="http://www.w3.org/1999/xlink" x="0px" y="0px"
	 viewBox="-41 164.9 512 512" style="enable-background:new -41 164.9 512 512;" xml:space="preserve">
<style type="text/css">
	.st0{fill:#B5B5B5;}
</style>
<g>
	<g>
		<path class="st0" d="M215,460.1c-4.4,0-8,3.6-8,8v30.1c0,4.4,3.6,8,8,8s8-3.6,8-8v-30.1C223,463.6,219.4,460.1,215,460.1z"/>
	</g>
</g>
<g>
	<g>
		<path class="st0" d="M215,339.6c-4.4,0-8,3.6-8,8v30.1c0,4.4,3.6,8,8,8s8-3.6,8-8v-30.1C223,343.2,219.4,339.6,215,339.6z"/>
	</g>
</g>
<g>
	<g>
		<path class="st0" d="M215,520.3c-4.4,0-8,3.6-8,8v30.1c0,4.4,3.6,8,8,8s8-3.6,8-8v-30.1C223,523.9,219.4,520.3,215,520.3z"/>
	</g>
</g>
<g>
	<g>
		<path class="st0" d="M215,279.3c-4.4,0-8,3.6-8,8v30.1c0,4.4,3.6,8,8,8s8-3.6,8-8v-30.1C223,282.9,219.4,279.3,215,279.3z"/>
	</g>
</g>
<g>
	<g>
		<path class="st0" d="M109.6,414.9H79.4c-4.4,0-8,3.6-8,8s3.6,8,8,8h30.1c4.4,0,8-3.6,8-8S114,414.9,109.6,414.9z"/>
	</g>
</g>
<g>
	<g>
		<path class="st0" d="M169.8,414.9h-30.1c-4.4,0-8,3.6-8,8s3.6,8,8,8h30.1c4.4,0,8-3.6,8-8S174.2,414.9,169.8,414.9z"/>
	</g>
</g>
<g>
	<g>
		<path class="st0" d="M230.1,414.9h-7v-7c0-4.4-3.6-8-8-8s-8,3.6-8,8v7h-7c-4.4,0-8,3.6-8,8s3.6,8,8,8h7v7c0,4.4,3.6,8,8,8
			s8-3.6,8-8v-7h7c4.4,0,8-3.6,8-8S234.5,414.9,230.1,414.9z"/>
	</g>
</g>
<g>
	<g>
		<path class="st0" d="M350.6,414.9h-30.1c-4.4,0-8,3.6-8,8s3.6,8,8,8h30.1c4.4,0,8-3.6,8-8S355,414.9,350.6,414.9z"/>
	</g>
</g>
<g>
	<g>
		<path class="st0" d="M290.3,414.9h-30.1c-4.4,0-8,3.6-8,8s3.6,8,8,8h30.1c4.4,0,8-3.6,8-8S294.7,414.9,290.3,414.9z"/>
	</g>
</g>
<g>
	<g>
		<path class="st0" d="M398.9,233.2H31.2c-4.4,0-8,3.6-8,8v363.4c0,4.4,3.6,8,8,8h367.7c4.4,0,8-3.6,8-8V241.2
			C406.9,236.8,403.3,233.2,398.9,233.2z M390.8,414.9h-10.2c-4.4,0-8,3.6-8,8s3.6,8,8,8h10.2v165.7H223v-8c0-4.4-3.6-8-8-8
			s-8,3.6-8,8v8H39.2V430.9h10.2c4.4,0,8-3.6,8-8s-3.6-8-8-8H39.2V249.2H207v8c0,4.4,3.6,8,8,8s8-3.6,8-8v-8h167.8V414.9z"/>
	</g>
</g>
<g>
	<g>
		<path class="st0" d="M398.9,173.3c-4.4,0-8,3.6-8,8v34.2c0,4.4,3.6,8,8,8s8-3.6,8-8v-34.2C406.9,176.9,403.3,173.3,398.9,173.3z"
			/>
	</g>
</g>
<g>
	<g>
		<path class="st0" d="M463,233.2h-34.2c-4.4,0-8,3.6-8,8s3.6,8,8,8H463c4.4,0,8-3.6,8-8S467.4,233.2,463,233.2z"/>
	</g>
</g>
<g>
	<g>
		<path class="st0" d="M31.2,173.3c-4.4,0-8,3.6-8,8v34.2c0,4.4,3.6,8,8,8s8-3.6,8-8v-34.2C39.2,176.9,35.6,173.3,31.2,173.3z"/>
	</g>
</g>
<g>
	<g>
		<path class="st0" d="M1.2,233.2H-33c-4.4,0-8,3.6-8,8s3.6,8,8,8H1.2c4.4,0,8-3.6,8-8S5.7,233.2,1.2,233.2z"/>
	</g>
</g>
<g>
	<g>
		<path class="st0" d="M398.9,622.2c-4.4,0-8,3.6-8,8v34.2c0,4.4,3.6,8,8,8s8-3.6,8-8v-34.2C406.9,625.8,403.3,622.2,398.9,622.2z"
			/>
	</g>
</g>
<g>
	<g>
		<path class="st0" d="M463,596.6h-34.2c-4.4,0-8,3.6-8,8s3.6,8,8,8H463c4.4,0,8-3.6,8-8C471,600.2,467.4,596.6,463,596.6z"/>
	</g>
</g>
<g>
	<g>
		<path class="st0" d="M31.2,622.2c-4.4,0-8,3.6-8,8v34.2c0,4.4,3.6,8,8,8s8-3.6,8-8v-34.2C39.2,625.8,35.6,622.2,31.2,622.2z"/>
	</g>
</g>
<g>
	<g>
		<path class="st0" d="M1.2,596.6H-33c-4.4,0-8,3.6-8,8s3.6,8,8,8H1.2c4.4,0,8-3.6,8-8C9.2,600.2,5.7,596.6,1.2,596.6z"/>
	</g>
</g>
</svg>
