<?xml version="1.0" encoding="utf-8"?>
<!-- Generator: Adobe Illustrator 19.0.1, SVG Export Plug-In . SVG Version: 6.00 Build 0)  -->
<svg version="1.1" id="Layer_1" xmlns="http://www.w3.org/2000/svg" xmlns:xlink="http://www.w3.org/1999/xlink" x="0px" y="0px"
	 viewBox="-49 172.9 496 496" style="enable-background:new -49 172.9 496 496;" xml:space="preserve">
<style type="text/css">
	.st0{fill:#B5B5B5;}
</style>
<g>
	<g>
		<g>
			<rect x="63" y="620.9" class="st0" width="56" height="16"/>
			<path class="st0" d="M391,468.9v-40c0-13.2-10.8-24-24-24H231v-32.6c27.1-3.9,48-27.2,48-55.4s-20.9-51.5-48-55.4v-48.6
				c0-22.1-17.9-40-40-40H-9c-22.1,0-40,17.9-40,40v416c0,22.1,17.9,40,40,40h200c22.1,0,40-17.9,40-40v-64h56v-96h-56v-48h136
				c4.4,0,8,3.6,8,8v40h-56v96h128v-96H391z M-33,212.9c0-13.2,10.8-24,24-24h200c13.2,0,24,10.8,24,24v8H-33V212.9z M215,628.9
				c0,13.2-10.8,24-24,24H-9c-13.2,0-24-10.8-24-24v-24h248V628.9z M215,588.9H-33v-352h248v24.6c-27.1,3.9-48,27.2-48,55.4
				s20.9,51.5,48,55.4v32.6H79c-13.2,0-24,10.8-24,24v40H-1v96h128v-96H71v-40c0-4.4,3.6-8,8-8h136v48h-56v96h56V588.9z M111,484.9
				v64H15v-64H111z M271,484.9v64h-96v-64H271z M223,356.9c-22.1,0-40-17.9-40-40s17.9-40,40-40s40,17.9,40,40
				S245.1,356.9,223,356.9z M431,548.9h-96v-64h96V548.9z"/>
			<rect x="247" y="372.9" class="st0" width="16" height="16"/>
			<rect x="279" y="372.9" class="st0" width="16" height="16"/>
			<rect x="311" y="372.9" class="st0" width="16" height="16"/>
			<rect x="119" y="372.9" class="st0" width="16" height="16"/>
			<rect x="151" y="372.9" class="st0" width="16" height="16"/>
			<rect x="183" y="372.9" class="st0" width="16" height="16"/>
		</g>
	</g>
</g>
</svg>
