<svg id="Layer_1" data-name="Layer 1" xmlns="http://www.w3.org/2000/svg" viewBox="0 0 28.66 11.94"><defs><style>.cls-1{fill:#613795;}</style></defs><title>infinity-icn</title><path class="cls-1" d="M109.25,232.46a7.14,7.14,0,0,0-9.34,0l-2.36,2.13,1.67,1.51,2.32-2.09a4.66,4.66,0,0,1,6.07,0,3.54,3.54,0,0,1,0,5.38,4.66,4.66,0,0,1-6.07,0l-7.71-6.92a7.14,7.14,0,0,0-9.34,0,5.56,5.56,0,0,0,0,8.45,7.14,7.14,0,0,0,9.34,0l2.36-2.12-1.67-1.51-2.31,2.08a4.66,4.66,0,0,1-6.07,0,3.54,3.54,0,0,1,0-5.38,4.66,4.66,0,0,1,6.07,0l7.71,6.92a7.14,7.14,0,0,0,9.34,0A5.55,5.55,0,0,0,109.25,232.46Z" transform="translate(-82.54 -230.72)"/></svg>