<?xml version="1.0" encoding="utf-8"?>
<!-- Generator: Adobe Illustrator 18.0.0, SVG Export Plug-In . SVG Version: 6.00 Build 0)  -->
<!DOCTYPE svg PUBLIC "-//W3C//DTD SVG 1.1//EN" "http://www.w3.org/Graphics/SVG/1.1/DTD/svg11.dtd">
<svg version="1.1" id="Слой_1" xmlns="http://www.w3.org/2000/svg" xmlns:xlink="http://www.w3.org/1999/xlink" x="0px" y="0px"
	 viewBox="0 0 538.3 174.8" enable-background="new 0 0 538.3 174.8" xml:space="preserve">
<g>
	<path fill="#464646" d="M486.3,69.1c-3.6-3.6-8.5-5-14.6-4.3c-6.5,0.7-13,5.3-19.4,13.8c0-0.1,0-0.2-0.1-0.4v-0.4
		c-0.1,0-0.1,0-0.1,0c-0.2-4.7-1.8-8.2-4.8-10.6c-3-2.3-7.1-3.2-12.2-2.6c-2.2,0.3-3,1.5-2.5,3.7c0.2,1.4,0.1,3.1-0.4,5.3
		c-0.2,0.7-1.1,3.5-2.7,8.6c-0.1,0.2-0.2,0.5-0.2,0.7c-4.2,9.5-13.8,20.6-17,23.1c-8.1,6.3-12.4,7.5-16.7,7.4
		c-5.9-0.1-8.1-3.4-6.6-9.9c5.7-2.8,10.6-5.4,14.5-8c6.8-4.4,11.2-9,13.2-13.8c1.8-4.3,1.5-8.1-0.8-11.4c-2.1-3.2-5.5-5.1-10-5.8
		c-4.8-0.8-9.7,0.1-14.7,2.9c-5.9,3.1-11.1,8.4-15.3,15.8c-3.4,5.9-5.8,11.9-7,18c0,0-0.2,0.9-0.2,1.3c0,0-6.2,2.7-8.6,4.1
		c0.6-1.4,11.8-22,5.5-34.3c-3-5.8-7.9-8.3-15.3-7.3c-6.8,0.9-13.8,6.1-21,15.5c0.3-5.1-1-9.1-4-11.9c-3-2.9-7.1-4-12.4-3.5
		c-1.1,0.1-2,0.7-2.7,1.8c-0.6,0.9-0.9,2-1,3.4c-0.1,3.5-0.9,8.4-3.2,14.3c-3.7,9.6-9.8,19.5-13.5,22.6c-3.4,3.6-7,5.3-9.1,5.9
		c-1.9,0.5-3.4,0.1-4.3-1.2c-1.1-1.3-1.3-3.1-0.3-5.6c5.7-14.6,9.3-23.5,10.8-26.9c1.7-3.7,3.5-6.5,5.4-8.3c0.7-0.7,1.1-1.4,1.2-2.3
		c0.1-1-0.2-1.6-1-2c-5.2-2.6-10.3-2.9-15.7-1.2c-10.7,3.4-15,19.1-19.3,30c-2.9,7.4-7,13.7-12.9,16.6c-4.7,2.3-6.9,0-5.9-5.9
		c0.5-3.4,2.1-8,4.5-13.8c1.5-3.6,3.5-6.8,5.9-9.8c3.6-4.3,7.2-6.2,10.8-5.8c1.5,0.5,2.5,0.6,3.1,0.2c0.6-0.4,0.8-1,0.6-1.8
		c-0.6-2.4-2-4.6-4.3-6.6c-2.6-2.3-5.5-3.6-8.9-4.1c-3.4-0.4-6.9,0-10.5,1.4c-3.7,1.4-7.3,4.7-10.8,9.8c-2.9,4.2-7.5,13.6-9.6,19.3
		c-2.3,6.1-11.3,20.7-18,17.6c-1-0.4-1.7-1.3-2-2.6c-0.3-1.2-0.2-2.5,0.4-4c3.6-9.4,5.7-14.9,6.3-16.6c2.3-7.1,1.9-13.2-1.3-18.3
		c-3.3-5.3-8.3-7.5-15.2-6.5c-6.2,0.7-12.6,5.2-19.3,13.3l14.1-36.5c2.4-7.4,2.1-13.4-1.1-18c-3.1-4.5-8.1-6.3-15.2-5.5
		c-2.5,0.3-3.5,1.5-3.1,3.6c0.5,2.6-0.6,8.1-3.4,16.7c-5.7,17.5-13.8,39.4-24.1,65.5c-3.2,8.1-3.7,13.6-1.5,16.5
		c2.2,3,7.9,4.5,17.2,4.4c2,0,3.2-0.4,3.6-1.2c0.1-0.1,0.1-0.2,0-0.3c0-0.4-0.1-1.3-0.1-3c0-3.9,0.8-8.2,2.5-13
		c2.5-7.3,6.9-14.8,13.2-22.6c3.2-4,5.8-6.3,7.7-7.1c1.8-0.8,3.1-0.8,4.1-0.1c1.2,0.9,1.5,2.9,1,6c-0.2,0.8-1.5,4.9-4.3,12.3
		c-2.2,5.9-3.1,11.3-2.7,16c0.2,3.8,1.5,6.9,3.7,9.1c2.1,2.1,4.8,3.4,8.3,3.8c7.4,0.9,14.4-1.9,21-8.4c2.3-2.3,4.8-6.2,5.9-8.3
		c0.1,3.6,0.9,7.2,2,9.3c1.4,2.9,3.4,4.9,6.1,6.2c2.7,1.2,5.8,1.7,9.4,1.2c6.3-0.8,12.8-5.3,19.6-13.6c0.5,4.5,2.3,8,5.3,10.5
		c3.2,2.7,7.3,3.8,12.2,3.1c11.1-1.6,21.5-14.3,23.5-16.7c-6.2,17.2-12.7,33.2-19.5,48.3c-2.4,5.3-4.9,9.2-7.3,11.6
		c-0.7,0.7-1.1,1.6-1.1,2.6c0,1,0.4,1.7,1.3,2c5.3,2.5,10.5,2.8,15.6,0.9c5.8-2.1,9.9-6.6,13-13.3c5.4-11.6,22.9-56.9,27.1-65.7
		c8.5-17.6,20.8-21.9,19.3-11.3c-0.5,3.3-2,7.9-4.4,13.7c-1.5,3.6-3.4,6.8-5.9,9.7c-3.6,4.2-7.1,6.2-10.6,5.7
		c-1.5-0.5-2.5-0.6-3.2-0.2c-0.6,0.4-0.8,1-0.6,1.9c0.6,2.3,2,4.5,4.2,6.5c5.2,4.8,11.5,5.2,19.3,2.7c3.6-1.2,6.9-4.6,9.2-7.4
		c4.1-4.9,10.5-7.5,13.9-8c0.1,3.1,0.9,5.9,2.2,8.3c1.9,3.7,5.1,6.3,9.3,7.7c4,1.4,8.5,1.6,13.3,0.2c15.1-4.2,25.2-16.7,30.9-25.7
		l-2.1,5.9c-3.1,7.9-3.5,13.4-1.1,16.5c2.4,3.1,7.8,4.5,16.4,4.1c1.1,0,1.9-0.4,2.6-1.4c0.7-0.8,0.9-1.8,0.9-2.9
		c0-4.7,1.4-10.7,4.1-18l1.3-3.3c0.3-0.7,0.7-1.6,1.4-2.7c3.2-5.5,7.3-10.3,12.3-14.5c1.6-1.4,3.5-2.3,5.5-2.6
		c3-0.5,5.5,0.4,7.5,2.7c2.1,2.3,3.7,3.8,4.8,4.5c2,1.1,4.4,1.3,7.1,0.3c1.9-0.7,3.3-1.4,4.1-2.3c1.2-1.3,1.8-3.2,1.8-5.9
		C490.7,75.1,489.2,71.9,486.3,69.1z M399.5,79.4c3.5-5.5,6.9-7.2,10.1-5.1c1.4,1.3,1.8,2.8,1.3,4.6c-0.7,2.3-2.8,4.8-6.2,7.6
		c-3.7,3.2-7.9,5.9-12.5,8.4C395.7,86.7,398.1,81.5,399.5,79.4z"/>
	<path fill="#464646" d="M529.5,85.1c-0.6,0.1-1-0.1-1.2-0.5s-0.2-1-0.1-1.5c0.3-1.2,0.4-2.8,0.4-4.8c-0.1-2.6-0.9-4.8-2.4-6.3
		c-1.4-1.5-2.9-2.1-4.6-1.8c-2,0.4-3.2,1.7-3.7,4c-0.2,1.2,0.4,3.1,1.6,5.5s4,6.8,8.2,13.3c2.5,3.7,3.6,7.8,3.3,12.2
		c-0.3,4.3-1.9,8.1-4.8,11.2c-3.4,3.7-8,6.4-13.6,7.8c-6.4,1.5-12.7,1.1-19-1.3c-2.3-1-4.5-2.4-6.3-4.4c-1.9-2.1-3.1-4.5-3.5-7
		c-0.5-3.1-0.4-5.9,0.6-8.6c1.8-5.1,6.2-7.5,13.3-7.1c0.8,0.1,1.2,0.4,1.5,1.1c0.2,0.5,0.1,1.2-0.2,1.9c-0.8,1.5-1.4,3.6-1.8,6.2
		c-0.7,4.2-0.4,7.3,1.2,9.6c1.3,1.9,3.3,2.9,5.9,3.1c2.4,0.2,4.5-0.2,6.2-1.2c1.8-1.1,2.9-2.8,3.4-5.1c1.1-5.3-1.6-12.6-8-22
		c-5.1-7.6-6.1-13.9-2.9-18.8c1.4-2.1,3.5-3.7,6.2-4.8c2.6-1.1,5.6-1.7,8.9-1.6c10.5-0.4,16.8,2.6,19.2,8.9c0.9,2.1,1.2,4,1,5.6
		C537.6,82.2,534.7,84.4,529.5,85.1z"/>
	<g>
		<path fill="#464646" d="M367,140.7h5c4.6,0,7.3,2.7,7.3,6.4c0,3.7-2.7,6.5-7.4,6.5H367V140.7z M372,150.4c2.1,0,3.6-1.2,3.6-3.3
			c0-2.1-1.4-3.3-3.6-3.3h-1.5v6.6H372z"/>
		<path fill="#464646" d="M396,140.7h10.4v3.1h-6.9v2h6.2v2.8h-6.2v2.1h7v3.1H396V140.7z"/>
		<path fill="#464646" d="M422.1,151.7l2-2.4c1.3,1,2.7,1.6,4.2,1.6c1,0,1.5-0.3,1.5-0.9c0-0.5-0.4-0.8-2.2-1.2
			c-2.8-0.6-4.9-1.4-4.9-4.1c0-2.4,1.9-4.1,5-4.1c2.2,0,3.9,0.6,5.3,1.7l-1.8,2.5c-1.2-0.8-2.5-1.3-3.6-1.3c-0.9,0-1.3,0.4-1.3,0.9
			c0,0.6,0.4,0.9,2.2,1.3c3,0.6,4.8,1.6,4.8,4.1c0,2.6-2.1,4.2-5.2,4.2C425.9,153.8,423.7,153.1,422.1,151.7z"/>
		<path fill="#464646" d="M450.1,140.7h3.6v13h-3.6V140.7z"/>
		<path fill="#464646" d="M470.4,147.1c0-3.8,3-6.7,7-6.7c2.3,0,3.9,0.7,5.3,1.9l-2.1,2.5c-0.9-0.8-1.9-1.2-3.1-1.2
			c-1.9,0-3.3,1.6-3.3,3.6c0,2.1,1.5,3.6,3.5,3.6c0.9,0,1.5-0.2,2.1-0.5v-1.6h-2.6v-2.6h6v5.8c-1.4,1.1-3.3,2-5.6,2
			C473.4,153.9,470.4,151.1,470.4,147.1z"/>
		<path fill="#464646" d="M499.9,140.7h3.4l5.3,6.9v-6.9h3.6v13H509l-5.5-7.1v7.1h-3.6V140.7z"/>
	</g>
	<path fill="#464646" d="M122.1,0.3c8.1-1,15.1,0.6,20.9,4.6c6.2,4.2,9.1,10,8.9,17.4c-0.4,10-4.7,17.4-12.8,21.8
		c-2.5,1.4-4.5,1.3-6.1-0.2c-0.7-0.7-1.1-1.5-1.1-2.6c-0.1-1.2,0.4-2.2,1.3-3c2.8-2.6,4.7-4.5,5.6-5.9c2-2.5,3.1-5.3,3.4-8.6
		c0.2-2.9-0.4-5.6-1.8-8.1c-1.3-2.5-3.1-4.2-5.3-5c-2.5-0.9-5.1-0.6-7.8,0.9c-4.1,2.3-5.9,8.2-5.3,17.9c0.2,3.3,0.7,7.9,1.5,13.7
		c0,0,3.9,27.6,4.4,37.1c1.4,17.7-3.1,32.6-13.3,44.8c-10.2,12.1-24.7,20-43.7,23.7c-18.7,3.6-35-0.1-49-11.3
		C9.3,127.3,2,114.5,0.4,98.9c-1.7-16.2,1.7-29.7,10.1-40.3c4.8-6,10.8-10.8,18-14.3c7.5-3.6,14.4-4,20.6-1.5
		c5.6,2.3,9.2,6.5,10.7,12.5c0.2,1-0.1,2-0.9,2.8c-0.7,0.8-1.7,1.2-2.9,1.5c-1.7,0.2-4.4,1-8.1,2.1c-8.5,2.6-15.3,7-20.4,13.5
		c-4.6,5.9-7.3,12.7-8.1,20.6c-0.7,7.5,0.4,14.7,3.6,21.5c3.3,7,8.3,12.5,14.8,16.2c9.6,5.5,19.8,7.1,30.7,4.7
		c21.2-4.8,32.7-19.7,34.3-45c0.2-3.4-0.7-11.6-2.6-24.6c-0.5-3.5-1.2-8.1-2.2-13.7l-1.2-7.5C95.4,34.9,96,25,98.6,17.8
		C102.4,7.6,110.2,1.7,122.1,0.3z"/>
</g>
</svg>
