<?xml version="1.0" encoding="utf-8"?>
<!-- Generator: Adobe Illustrator 18.0.0, SVG Export Plug-In . SVG Version: 6.00 Build 0)  -->
<!DOCTYPE svg PUBLIC "-//W3C//DTD SVG 1.1//EN" "http://www.w3.org/Graphics/SVG/1.1/DTD/svg11.dtd">
<svg version="1.1" id="Слой_1" xmlns="http://www.w3.org/2000/svg" xmlns:xlink="http://www.w3.org/1999/xlink" x="0px" y="0px"
	 viewBox="0 0 152 150.1" enable-background="new 0 0 152 150.1" xml:space="preserve">
<path fill="#464646" d="M122.1,0.3c8.1-1,15.1,0.6,20.9,4.6c6.2,4.2,9.1,10,8.9,17.4c-0.4,10-4.7,17.4-12.8,21.8
	c-2.5,1.4-4.5,1.3-6.1-0.2c-0.7-0.7-1.1-1.5-1.1-2.6c-0.1-1.2,0.4-2.2,1.3-3c2.8-2.6,4.7-4.5,5.6-5.9c2-2.5,3.1-5.3,3.4-8.6
	c0.2-2.9-0.4-5.6-1.8-8.1c-1.3-2.5-3.1-4.2-5.3-5c-2.5-0.9-5.1-0.6-7.8,0.9c-4.1,2.3-5.9,8.2-5.3,17.9c0.2,3.3,0.7,7.9,1.5,13.7
	c0,0,3.9,27.6,4.4,37.1c1.4,17.7-3.1,32.6-13.3,44.8c-10.2,12.1-24.7,20-43.7,23.7c-18.7,3.6-35-0.1-49-11.3
	C9.3,127.3,2,114.5,0.4,98.9c-1.7-16.2,1.7-29.7,10.1-40.3c4.8-6,10.8-10.8,18-14.3c7.5-3.6,14.4-4,20.6-1.5
	c5.6,2.3,9.2,6.5,10.7,12.5c0.2,1-0.1,2-0.9,2.8c-0.7,0.8-1.7,1.2-2.9,1.5c-1.7,0.2-4.4,1-8.1,2.1c-8.5,2.6-15.3,7-20.4,13.5
	c-4.6,5.9-7.3,12.7-8.1,20.6c-0.7,7.5,0.4,14.7,3.6,21.5c3.3,7,8.3,12.5,14.8,16.2c9.6,5.5,19.8,7.1,30.7,4.7
	c21.2-4.8,32.7-19.7,34.3-45c0.2-3.4-0.7-11.6-2.6-24.6c-0.5-3.5-1.2-8.1-2.2-13.7l-1.2-7.5C95.4,34.9,96,25,98.6,17.8
	C102.4,7.6,110.2,1.7,122.1,0.3z"/>
</svg>
