<?xml version="1.0" encoding="utf-8"?>
<!-- Generator: Adobe Illustrator 19.0.1, SVG Export Plug-In . SVG Version: 6.00 Build 0)  -->
<svg version="1.1" id="Слой_1" xmlns="http://www.w3.org/2000/svg" xmlns:xlink="http://www.w3.org/1999/xlink" x="0px" y="0px"
	 viewBox="-379 265.5 200 30.5" style="enable-background:new -379 265.5 200 30.5;" xml:space="preserve">
<style type="text/css">
	.st0{fill:#FFFFFF;}
</style>
<g transform="translate(0.000000,200.000000) scale(0.100000,-0.100000)">
	<path class="st0" d="M-3678-768l-107-107l27-28l28-27l82,82l83,83l98-98l97-97l98,97l97,98l98-98l97-97l95,95l95,95l95-95l95-95
		l98,97l97,98l98-98l97-97l98,97l97,98l83-83l83-82l27,28l27,28l-110,109l-110,110l-93-93c-51-50-97-92-102-92s-51,42-102,92l-93,93
		l-95-95l-95-95l-93,93c-51,50-97,92-102,92s-51-42-102-92l-93-93l-95,95l-95,95l-93-93c-51-50-97-92-102-92c-6,0-51,41-100,90
		c-49,50-92,90-95,90S-3619-708-3678-768z"/>
</g>
</svg>
