<?xml version="1.0" encoding="utf-8"?>
<!-- Generator: Adobe Illustrator 19.0.1, SVG Export Plug-In . SVG Version: 6.00 Build 0)  -->
<svg version="1.1" id="Layer_1" xmlns="http://www.w3.org/2000/svg" xmlns:xlink="http://www.w3.org/1999/xlink" x="0px" y="0px"
	 viewBox="-164 -245.5 512 474.3" style="enable-background:new -164 -245.5 512 474.3;" xml:space="preserve">
<style type="text/css">
	.st0{fill:#8B8B8B;}
</style>
<g>
	<g>
		<g>
			<path class="st0" d="M50.7,138.8c-24.8,0-45,20.2-45,45s20.2,45,45,45s45-20.2,45-45S75.5,138.8,50.7,138.8z M50.7,203.7
				c-11,0-19.9-8.9-19.9-19.9s8.9-19.9,19.9-19.9s19.9,8.9,19.9,19.9C70.6,194.8,61.6,203.7,50.7,203.7z"/>
		</g>
	</g>
	<g>
		<g>
			<path class="st0" d="M208.6,138.8c-24.8,0-45,20.2-45,45s20.2,45,45,45s45-20.2,45-45C253.7,159,233.5,138.8,208.6,138.8z
				 M208.6,203.7c-11,0-19.9-8.9-19.9-19.9s8.9-19.9,19.9-19.9s19.9,8.9,19.9,19.9C228.5,194.8,219.6,203.7,208.6,203.7z"/>
		</g>
	</g>
	<g>
		<g>
			<path class="st0" d="M219.7-98.3H39.6c-6.9,0-12.6,5.6-12.6,12.6s5.6,12.6,12.6,12.6h180.1c6.9,0,12.6-5.6,12.6-12.6
				C232.3-92.6,226.7-98.3,219.7-98.3z"/>
		</g>
	</g>
	<g>
		<g>
			<path class="st0" d="M209.9-33H49.4c-6.9,0-12.6,5.6-12.6,12.6S42.4-7.8,49.4-7.8h160.5c6.9,0,12.6-5.6,12.6-12.6
				S216.9-33,209.9-33z"/>
		</g>
	</g>
	<g>
		<g>
			<path class="st0" d="M342.3-154.3c-4.8-5.9-11.9-9.3-19.5-9.3H-68.7l-7.9-38.4c-1.7-8-7.1-14.7-14.6-18l-55.2-24
				c-6.4-2.8-13.8,0.2-16.5,6.5c-2.8,6.4,0.2,13.8,6.5,16.5l55.2,24l60.8,295.3c2.4,11.6,12.8,20.1,24.6,20.1h301.2
				c6.9,0,12.6-5.6,12.6-12.6c0-6.9-5.6-12.6-12.6-12.6H-15.8l-7.4-35.9h310.9c11.9,0,22.2-8.4,24.6-20.1l35.2-170.5
				C349-140.8,347.1-148.4,342.3-154.3z M287.7,32.3H-28.4l-35.2-170.7h386.4L287.7,32.3z"/>
		</g>
	</g>
</g>
</svg>
