<?xml version="1.0" encoding="utf-8"?>
<!-- Generator: Adobe Illustrator 19.0.1, SVG Export Plug-In . SVG Version: 6.00 Build 0)  -->
<svg version="1.1" id="Layer_1" xmlns="http://www.w3.org/2000/svg" xmlns:xlink="http://www.w3.org/1999/xlink" x="0px" y="0px"
	 viewBox="-41 183.6 512 474.3" style="enable-background:new -41 183.6 512 474.3;" xml:space="preserve">
<style type="text/css">
	.st0{fill:#66A25D;}
</style>
<g>
	<g>
		<g>
			<path class="st0" d="M173.7,566.9c-24.8,0-45,20.2-45,45s20.2,45,45,45s45-20.2,45-45S198.5,566.9,173.7,566.9z M173.7,631.8
				c-11,0-19.9-8.9-19.9-19.9s8.9-19.9,19.9-19.9s19.9,8.9,19.9,19.9S184.6,631.8,173.7,631.8z"/>
		</g>
	</g>
	<g>
		<g>
			<path class="st0" d="M331.6,566.9c-24.8,0-45,20.2-45,45s20.2,45,45,45s45-20.2,45-45C376.7,587.1,356.5,566.9,331.6,566.9z
				 M331.6,631.8c-11,0-19.9-8.9-19.9-19.9s8.9-19.9,19.9-19.9s19.9,8.9,19.9,19.9S342.6,631.8,331.6,631.8z"/>
		</g>
	</g>
	<g>
		<g>
			<path class="st0" d="M342.7,329.8H162.6c-6.9,0-12.6,5.6-12.6,12.6s5.6,12.6,12.6,12.6h180.1c6.9,0,12.6-5.6,12.6-12.6
				C355.3,335.5,349.7,329.8,342.7,329.8z"/>
		</g>
	</g>
	<g>
		<g>
			<path class="st0" d="M332.9,395.1H172.4c-6.9,0-12.6,5.6-12.6,12.6s5.6,12.6,12.6,12.6h160.5c6.9,0,12.6-5.6,12.6-12.6
				S339.9,395.1,332.9,395.1z"/>
		</g>
	</g>
	<g>
		<g>
			<path class="st0" d="M465.3,273.8c-4.8-5.9-11.9-9.3-19.5-9.3H54.3l-7.9-38.4c-1.7-8-7.1-14.7-14.6-18l-55.2-24
				c-6.4-2.8-13.8,0.2-16.5,6.5c-2.8,6.4,0.2,13.8,6.5,16.5l55.2,24l60.8,295.3c2.4,11.6,12.8,20.1,24.6,20.1h301.2
				c6.9,0,12.6-5.6,12.6-12.6c0-6.9-5.6-12.6-12.6-12.6H107.2l-7.4-35.9h310.9c11.9,0,22.2-8.4,24.6-20.1l35.2-170.5
				C472,287.3,470.1,279.7,465.3,273.8z M410.7,460.4H94.6L59.4,289.7h386.4L410.7,460.4z"/>
		</g>
	</g>
</g>
</svg>
